<svg width="242" height="314" viewBox="0 0 242 314" fill="none" xmlns="http://www.w3.org/2000/svg">
<path d="M230.029 145.55C220.939 124.99 207.609 105.84 194.739 87.33C192.359 83.92 190.119 80.69 187.899 77.46C184.749 72.86 180.479 66.97 175.539 60.15C164.249 44.56 146.619 20.53 134.699 0.790039V50.21C146.979 67.83 158.899 83.7 165.269 92.99C179.209 113.32 195.359 134.99 204.939 156.65C233.719 221.78 193.239 285.5 122.889 286.26H121.629C121.449 286.26 121.279 286.26 121.099 286.26C120.919 286.26 120.749 286.26 120.569 286.26H119.309C48.9593 285.5 8.46925 221.78 37.2593 156.65C46.8393 134.98 62.9792 113.32 76.9292 92.99C83.2892 83.71 95.2093 67.83 107.499 50.21V0.790039C95.5793 20.54 77.9493 44.57 66.6593 60.15C61.7193 66.96 57.4493 72.85 54.2993 77.46C52.0793 80.69 49.8393 83.91 47.4593 87.33C34.5793 105.85 21.2492 125 12.1692 145.55C3.33925 165.52 -0.53075 185.93 0.67925 206.2C1.83925 225.85 7.95925 244.77 18.3593 260.93C28.6393 276.9 43.0992 290.14 60.1692 299.22C77.8092 308.59 97.6092 313.47 119.039 313.7C119.559 313.7 120.069 313.7 120.599 313.7C120.779 313.7 120.949 313.7 121.129 313.7C121.309 313.7 121.479 313.7 121.659 313.7C122.179 313.7 122.689 313.7 123.219 313.7C144.649 313.47 164.449 308.6 182.089 299.22C199.159 290.14 213.609 276.9 223.899 260.93C234.299 244.77 240.419 225.85 241.579 206.2C242.779 185.93 238.909 165.52 230.089 145.55H230.029Z" fill="url(#paint0_linear_398_27)"/>
<defs>
<linearGradient id="paint0_linear_398_27" x1="121.089" y1="313.7" x2="121.089" y2="0.780042" gradientUnits="userSpaceOnUse">
<stop stop-color="#00A8F4"/>
<stop offset="1" stop-color="#00E5D0"/>
</linearGradient>
</defs>
</svg>
